<?xml version="1.0" encoding="UTF-8" standalone="no"?><!-- Generator: Gravit.io --><svg xmlns="http://www.w3.org/2000/svg" xmlns:xlink="http://www.w3.org/1999/xlink" style="isolation:isolate" viewBox="0 0 2540.449 1917.934" width="2540.449pt" height="1917.934pt"><defs><clipPath id="_clipPath_o6crxXfHfkS9dS6GnJ9rFA7qrfQarAcg"><rect width="2540.449" height="1917.934"/></clipPath></defs><g clip-path="url(#_clipPath_o6crxXfHfkS9dS6GnJ9rFA7qrfQarAcg)"><clipPath id="_clipPath_od3bfHeY3u6Kca9ISvtKyrBVwt2iUUZh"><rect x="0" y="0" width="2540.449" height="1917.934" transform="matrix(1,0,0,1,0,0)" fill="rgb(255,255,255)"/></clipPath><g clip-path="url(#_clipPath_od3bfHeY3u6Kca9ISvtKyrBVwt2iUUZh)"><g><g><g><g><path d=" M 2365.055 615.131 L 2335.027 597.856 L 2503.306 500.556 L 2503.509 412.708 L 1856.026 38.805 C 1774.02 -8.676 1699.814 -11.039 1647.836 23.283 L 1647.836 22.851 L 86.732 924.303 L 79.847 928.215 L 76.367 930.146 L 76.367 930.375 C 29.114 961.419 0.179 1022.948 0.001 1108.13 C -0.405 1287.866 126.21 1507.513 282.676 1597.699 L 792.519 1892.01 C 844.09 1921.758 890.529 1925.036 922.844 1906.287 L 922.844 1906.465 L 926.527 1904.331 L 2491.036 1000.923 L 2494.237 999.17 L 2494.237 998.916 C 2522.69 982.606 2540.27 949.225 2540.447 901.642 C 2540.905 799.592 2462.1 671.02 2365.055 615.131 Z  M 1574.875 152.719 L 1586.078 146.266 C 1588.263 144.97 1590.193 143.903 1592.581 142.582 L 1628.326 121.878 C 1629.037 121.446 1629.901 121.242 1630.51 120.811 C 1678.195 95.787 1745.11 74.193 1830.977 114.332 C 1834.838 115.857 1838.573 117.584 1842.409 119.744 C 1846.728 121.878 1851.046 124.266 1855.619 126.831 L 2427.372 456.734 L 2259.068 553.855 L 2182.905 597.856 L 2014.626 694.977 L 1938.438 738.977 L 932.091 1320.054 L 604.145 1130.79 L 528.16 1086.815 L 284.328 946.151 C 269.034 937.285 253.741 929.943 239.032 924.1 L 1574.875 152.719 Z  M 792.722 1803.983 L 282.854 1509.698 C 168.763 1443.875 76.164 1283.598 76.621 1152.41 C 77.078 1021.221 170.236 968.151 284.15 1034.177 L 451.819 1130.816 L 283.794 1227.937 L 283.312 1315.76 L 283.515 1315.938 L 793.128 1610.249 C 848.18 1641.954 892.841 1711.206 892.612 1764.708 C 892.409 1818.032 847.723 1835.739 792.722 1803.983 Z  M 2463.802 864.323 C 2461.44 915.488 2431.488 946.125 2370.619 982.581 C 2368.917 983.673 2367.138 984.512 2365.411 985.604 C 2362.819 987.128 2360.279 988.856 2357.459 990.355 C 2355.528 991.447 2353.75 992.514 2352.023 993.378 L 968.318 1792.374 C 960.798 1693.322 885.524 1575.267 793.56 1522.4 L 359.906 1271.912 L 527.957 1174.867 L 931.888 1407.877 L 2014.372 783.029 L 2090.509 738.8 L 2258.839 641.704 L 2364.776 703.005 C 2419.598 734.735 2464.234 803.987 2464.031 857.489 C 2464.056 859.801 2464.056 862.164 2463.802 864.323 Z " fill="rgb(33,37,41)"/><path d=" M 786.168 1025.718 L 953.659 1125.786 L 1384.443 883.935 L 1211.057 780.387 L 1136.266 735.675 L 965.421 633.6 L 534.638 875.425 L 711.351 981.006 L 786.168 1025.718 Z " fill="rgb(33,37,41)"/><path d=" M 1604.09 372.137 L 1662.19 339.543 L 1804.582 259.621 L 1755.678 230.38 L 1720.798 209.523 L 1699.306 221.59 L 1648.192 250.297 L 1580.438 288.328 L 1051.009 585.534 L 1134.818 635.607 L 1604.09 372.137 Z " fill="rgb(33,37,41)"/><path d=" M 1638.182 450.129 L 1367.117 602.276 L 1218.602 685.679 L 1220.66 686.924 L 1295.502 731.61 L 1302.437 735.751 L 1681.751 522.811 L 1736.752 491.919 L 1869.973 417.103 L 1947.202 373.737 L 1972.226 359.74 L 1888.416 309.667 L 1861.945 324.504 L 1855.162 328.365 L 1693.107 419.313 L 1638.182 450.129 Z " fill="rgb(33,37,41)"/><path d=" M 1793.937 556.98 L 1734.161 590.539 L 1386.196 785.823 L 1470.03 835.895 L 1798.205 651.662 L 1869.897 611.396 L 2040.513 515.647 L 2117.768 472.256 L 2139.819 459.884 L 2056.035 409.837 L 2032.485 423.022 L 1955.306 466.387 L 1793.937 556.98 Z " fill="rgb(33,37,41)"/><path d=" M 2320.597 830.357 C 2316.177 824.971 2309.191 817.579 2301.188 812.879 L 2258.763 788.364 L 985.364 1523.67 L 1001.953 1546.509 C 1010.692 1558.449 1018.872 1570.796 1026.595 1583.422 L 1039.501 1604.609 L 2288.156 883.554 L 2298.775 877.66 C 2298.775 877.66 2261.379 898.924 2298.673 877.559 C 2336.018 856.143 2320.597 830.357 2320.597 830.357 Z " fill="rgb(33,37,41)"/></g></g></g></g></g></g></svg>