<?xml version="1.0" encoding="UTF-8" standalone="no"?><!-- Generator: Gravit.io --><svg xmlns="http://www.w3.org/2000/svg" xmlns:xlink="http://www.w3.org/1999/xlink" style="isolation:isolate" viewBox="5213 6.066 2540.449 1917.934" width="2540.449pt" height="1917.934pt"><defs><clipPath id="_clipPath_wiTw7o0FOt0OBfzRTErkrwu1GGmcxi0o"><rect x="5213" y="6.066" width="2540.449" height="1917.934"/></clipPath></defs><g clip-path="url(#_clipPath_wiTw7o0FOt0OBfzRTErkrwu1GGmcxi0o)"><g><g><g><path d=" M 7578.055 621.197 L 7548.027 603.922 L 7716.306 506.622 L 7716.509 418.774 L 7069.026 44.871 C 6987.02 -2.61 6912.814 -4.973 6860.836 29.349 L 6860.836 28.917 L 5299.732 930.369 L 5292.847 934.281 L 5289.367 936.212 L 5289.367 936.441 C 5242.114 967.485 5213.179 1029.014 5213.001 1114.196 C 5212.595 1293.932 5339.21 1513.579 5495.676 1603.765 L 6005.519 1898.076 C 6057.09 1927.824 6103.529 1931.102 6135.844 1912.353 L 6135.844 1912.531 L 6139.527 1910.397 L 7704.036 1006.989 L 7707.237 1005.236 L 7707.237 1004.982 C 7735.69 988.672 7753.27 955.291 7753.447 907.708 C 7753.905 805.658 7675.1 677.086 7578.055 621.197 Z  M 6787.875 158.785 L 6799.078 152.332 C 6801.263 151.036 6803.193 149.969 6805.581 148.648 L 6841.326 127.944 C 6842.037 127.512 6842.901 127.308 6843.51 126.877 C 6891.195 101.853 6958.11 80.259 7043.977 120.398 C 7047.838 121.923 7051.573 123.65 7055.409 125.81 C 7059.728 127.944 7064.046 130.332 7068.619 132.897 L 7640.372 462.8 L 7472.068 559.921 L 7395.905 603.922 L 7227.626 701.043 L 7151.438 745.043 L 6145.091 1326.12 L 5817.145 1136.856 L 5741.16 1092.881 L 5497.328 952.217 C 5482.034 943.351 5466.741 936.009 5452.032 930.166 L 6787.875 158.785 Z  M 6005.722 1810.049 L 5495.854 1515.764 C 5381.763 1449.941 5289.164 1289.664 5289.621 1158.476 C 5290.078 1027.287 5383.236 974.217 5497.15 1040.243 L 5664.819 1136.882 L 5496.794 1234.003 L 5496.312 1321.826 L 5496.515 1322.004 L 6006.128 1616.315 C 6061.18 1648.02 6105.841 1717.272 6105.612 1770.774 C 6105.409 1824.098 6060.723 1841.805 6005.722 1810.049 Z  M 7676.802 870.389 C 7674.44 921.554 7644.488 952.191 7583.619 988.647 C 7581.917 989.739 7580.138 990.578 7578.411 991.67 C 7575.819 993.194 7573.279 994.922 7570.459 996.421 C 7568.528 997.513 7566.75 998.58 7565.023 999.444 L 6181.318 1798.44 C 6173.798 1699.388 6098.524 1581.333 6006.56 1528.466 L 5572.906 1277.978 L 5740.957 1180.933 L 6144.888 1413.943 L 7227.372 789.095 L 7303.509 744.866 L 7471.839 647.77 L 7577.776 709.071 C 7632.598 740.801 7677.234 810.053 7677.031 863.555 C 7677.056 865.867 7677.056 868.23 7676.802 870.389 Z " fill="rgb(255,255,255)"/><path d=" M 5999.168 1031.784 L 6166.659 1131.852 L 6597.443 890.001 L 6424.057 786.453 L 6349.266 741.741 L 6178.421 639.666 L 5747.638 881.491 L 5924.351 987.072 L 5999.168 1031.784 Z " fill="rgb(255,255,255)"/><path d=" M 6817.09 378.203 L 6875.19 345.609 L 7017.582 265.687 L 6968.678 236.446 L 6933.798 215.589 L 6912.306 227.656 L 6861.192 256.363 L 6793.438 294.394 L 6264.009 591.6 L 6347.818 641.673 L 6817.09 378.203 Z " fill="rgb(255,255,255)"/><path d=" M 6851.182 456.195 L 6580.117 608.342 L 6431.602 691.745 L 6433.66 692.99 L 6508.502 737.676 L 6515.437 741.817 L 6894.751 528.877 L 6949.752 497.985 L 7082.973 423.169 L 7160.202 379.803 L 7185.226 365.806 L 7101.416 315.733 L 7074.945 330.57 L 7068.162 334.431 L 6906.107 425.379 L 6851.182 456.195 Z " fill="rgb(255,255,255)"/><path d=" M 7006.937 563.046 L 6947.161 596.605 L 6599.196 791.889 L 6683.03 841.961 L 7011.205 657.728 L 7082.897 617.462 L 7253.513 521.713 L 7330.768 478.322 L 7352.819 465.95 L 7269.035 415.903 L 7245.485 429.088 L 7168.306 472.453 L 7006.937 563.046 Z " fill="rgb(255,255,255)"/><path d=" M 7533.597 836.423 C 7529.177 831.037 7522.191 823.645 7514.188 818.945 L 7471.763 794.43 L 6198.364 1529.736 L 6214.953 1552.575 C 6223.692 1564.515 6231.872 1576.862 6239.595 1589.488 L 6252.501 1610.675 L 7501.156 889.62 L 7511.775 883.726 C 7511.775 883.726 7474.379 904.99 7511.673 883.625 C 7549.018 862.209 7533.597 836.423 7533.597 836.423 Z " fill="rgb(255,255,255)"/></g></g></g></g></svg>